<svg height='100px' width='100px' fill="#68217a" xmlns="http://www.w3.org/2000/svg" version="1.1" x="0px" y="0px" viewBox="0 0 24 24">
    <g transform="scale(1.3, 1.3) translate(-2.5, -1)">
        <path d="m 12,9.6074219 c -2.5345256,0 -4.5996094,2.0650841 -4.5996094,4.5996091 0,2.534526 2.0650838,4.59961 4.5996094,4.59961 2.534526,0 4.599609,-2.065084 4.599609,-4.59961 0,-2.534525 -2.065083,-4.5996091 -4.599609,-4.5996091 z m 0,1.0000001 c 1.994087,0 3.599609,1.605522 3.599609,3.599609 0,1.994087 -1.605522,3.59961 -3.599609,3.59961 -1.994087,0 -3.5996094,-1.605523 -3.5996094,-3.59961 0,-1.994087 1.6055224,-3.599609 3.5996094,-3.599609 z"></path>
        <path d="m 11.5,12.5 v 0.5 0.234375 0.5 h 1 v -0.5 V 13 12.5 Z"></path>
        <path d="m 13.132812,14.283203 v 0.5 0.234375 0.5 h 1 v -0.5 -0.234375 -0.5 z"></path>
        <path d="m 9.8671875,14.283203 v 0.5 0.234375 0.5 h 1.0000005 v -0.5 -0.234375 -0.5 z"></path>
        <path d="m 12,5.3964844 c -0.566418,-4e-7 -1.117621,0.1918684 -1.560547,0.5449218 l 0.623047,0.78125 C 11.328476,6.5106479 11.659866,6.3964841 12,6.3964844 c 0.339799,-1e-7 0.667742,0.1145451 0.933594,0.3261718 l 0.623047,-0.78125 C 13.113922,5.5889877 12.565861,5.3964843 12,5.3964844 Z"></path>
        <path d="m 12,3.3828125 c -0.992815,0 -1.957985,0.3258946 -2.7460938,0.9296875 L 9.8613281,5.1074219 C 10.475019,4.6372552 11.226906,4.3828125 12,4.3828125 c 0.77347,1e-7 1.524829,0.2540217 2.138672,0.7246094 L 14.746094,4.3144531 C 13.957791,3.7101198 12.993298,3.3828127 12,3.3828125 Z"></path>
        <path d="m 12,1.4199219 c -1.410985,-3e-7 -2.7850358,0.4610409 -3.9101562,1.3125 l 0.6035156,0.796875 C 9.6448854,2.8092092 10.806715,2.4199217 12,2.4199219 c 1.193732,2e-7 2.35493,0.3907426 3.306641,1.1113281 L 15.910156,2.734375 C 14.784818,1.8823275 13.411514,1.4199221 12,1.4199219 Z"></path>
    </g>
</svg>